<?xml version="1.0" encoding="utf-8"?>
<svg id="svg2" viewBox="0 0 500 670" xmlns="http://www.w3.org/2000/svg" style="shape-rendering: geometricprecision;">
  <desc>Source: openclipart.org/detail/209545</desc>
  <path id="path222" style="fill: rgb(255, 255, 255);" d="M 96.878 426.786 C 107.111 427.17 114.523 430.224 119.203 435.826 C 123.89 440.512 124.836 445.341 122.023 450.497 C 119.203 454.714 113.665 456.83 105.235 456.83 C 97.283 456.354 90.329 454.254 84.236 450.497 C 78.706 446.769 77.519 441.847 80.814 435.826 C 84.472 429.734 89.869 426.786 96.878 426.786 Z"/>
  <g transform="matrix(1, 0, 0, 1, -548.388192, -36.601456)">
    <g transform="matrix(1, 0, 0, 1, 556.388192, 122.101473)">
      <path style="opacity: 0.989; fill: rgb(67, 120, 187);" d="M 1.5,-0.5 C 34.5,-0.5 67.5,-0.5 100.5,-0.5C 147.651,46.3161 194.984,93.3161 242.5,140.5C 289.854,93.8123 336.854,46.8123 383.5,-0.5C 408.833,-0.5 434.167,-0.5 459.5,-0.5C 466.416,10.9318 473.583,22.2652 481,33.5C 482.312,35.9552 483.478,38.4552 484.5,41C 483.874,41.7504 483.374,42.5838 483,43.5C 403.661,121.503 324.161,199.67 244.5,278C 242.833,278.667 241.167,278.667 239.5,278C 158.609,199.941 78.6086,121.108 -0.5,41.5C -0.5,28.1667 -0.5,14.8333 -0.5,1.5C 0.5,1.16667 1.16667,0.5 1.5,-0.5 Z"/>
    </g>
    <g transform="matrix(1, 0, 0, 1, 556.388192, 122.101473)">
      <path style="opacity: 0.987; fill: rgb(67, 120, 187);" d="M 246.5,499.5 C 243.5,499.5 240.5,499.5 237.5,499.5C 159.981,423.814 82.6481,347.981 5.5,272C 2.84741,269.866 0.847413,267.366 -0.5,264.5C -0.5,250.833 -0.5,237.167 -0.5,223.5C 0.28913,223.217 0.955796,222.717 1.5,222C 34.1667,221.333 66.8333,221.333 99.5,222C 147.148,269.151 194.815,315.984 242.5,362.5C 289.95,315.214 337.283,268.381 384.5,222C 408.833,221.333 433.167,221.333 457.5,222C 467.117,234.061 475.617,246.894 483,260.5C 483.667,262.5 483.667,264.5 483,266.5C 404.101,343.898 325.267,421.565 246.5,499.5 Z"/>
    </g>
  </g>
</svg>