<?xml version="1.0" encoding="utf-8"?>
<svg id="svg2" viewBox="0 0 500 670" xmlns="http://www.w3.org/2000/svg" style="shape-rendering: geometricprecision;">
  <desc>Source: openclipart.org/detail/209545</desc>
  <g transform="matrix(1.30474, 0, 0, 1.30474, 0.794669, 85.794671)" style="">
    <path style="opacity: 0.985; fill: rgb(67, 120, 187);" d="M 183.5,-0.5 C 188.5,-0.5 193.5,-0.5 198.5,-0.5C 201.436,1.30787 204.436,3.1412 207.5,5C 264,61.5 320.5,118 377,174.5C 379.13,177.767 380.963,181.1 382.5,184.5C 382.5,189.167 382.5,193.833 382.5,198.5C 381.379,200.741 380.213,203.075 379,205.5C 321.167,263.333 263.333,321.167 205.5,379C 203.075,380.213 200.741,381.379 198.5,382.5C 193.833,382.5 189.167,382.5 184.5,382.5C 181.1,380.963 177.767,379.13 174.5,377C 118,320.5 61.5,264 5,207.5C 3.1412,204.436 1.30787,201.436 -0.5,198.5C -0.5,193.5 -0.5,188.5 -0.5,183.5C 1.03697,180.1 2.8703,176.767 5,173.5C 43.6667,134.833 82.3333,96.1667 121,57.5C 135.667,72.1667 150.333,86.8333 165,101.5C 159.842,118.164 165.009,130.83 180.5,139.5C 181.5,175.16 181.833,210.827 181.5,246.5C 169.956,251.083 163.623,259.75 162.5,272.5C 166.883,295.719 180.55,304.552 203.5,299C 221.023,288.1 224.856,273.6 215,255.5C 212.273,252.269 209.106,249.603 205.5,247.5C 204.333,212.171 204.167,176.838 205,141.5C 218,154.5 231,167.5 244,180.5C 239.586,198.273 245.42,211.44 261.5,220C 283.779,224.386 296.779,215.386 300.5,193C 296.63,170.495 283.296,161.162 260.5,165C 247,151.5 233.5,138 220,124.5C 222.833,95.3333 209.667,82.1667 180.5,85C 166.333,70.8333 152.167,56.6667 138,42.5C 137.333,41.8333 137.333,41.1667 138,40.5C 149.833,28.6667 161.667,16.8333 173.5,5C 176.767,2.8703 180.1,1.03697 183.5,-0.5 Z"/>
  </g>
</svg>