<?xml version="1.0" encoding="utf-8"?>
<svg id="svg2" viewBox="0 0 500 670" xmlns="http://www.w3.org/2000/svg">
  <desc>Source: openclipart.org/detail/209545</desc>
  <g transform="matrix(0.1, 0, 0, -0.1, -0.000012, 584.913217)" fill="#000000" stroke="none">
    <path d="M2281 4940 c-697 -68 -1322 -418 -1741 -975 -650 -866 -650 -2062 0 -2930 373 -497 922 -836 1528 -944 914 -163 1834 200 2392 944 650 867 650 2063 0 2930 -396 528 -966 865 -1625 961 -126 18 -430 26 -554 14z m413 -1261 c223 -244 354 -481 440 -801 100 -369 26 -816 -187 -1133 -65 -97 -176 -223 -249 -283 -37 -31 -70 -63 -73 -71 -8 -28 -55 -312 -55 -337 0 -20 -5 -24 -30 -24 -34 0 -31 -12 -55 205 -12 105 -20 144 -33 156 -9 8 -50 44 -90 78 -139 121 -285 314 -367 486 -139 292 -168 583 -94 947 67 336 253 667 494 882 81 73 105 108 105 153 1 22 10 10 47 -60 33 -64 73 -117 147 -198z" style="fill: rgb(67, 120, 187);"/>
    <path d="M2527 2785 c-11 -48 -29 -776 -24 -935 4 -116 9 -162 30 -228 13 -46 32 -91 41 -100 15 -15 16 -7 16 98 0 250 -36 1097 -49 1160 l-7 35 -7 -30z" style="fill: rgb(67, 120, 187);"/>
  </g>
</svg>