<?xml version="1.0" encoding="utf-8"?>
<svg id="svg2" viewBox="0 0 500 670" xmlns="http://www.w3.org/2000/svg">
  <desc>Source: openclipart.org/detail/209545</desc>
  <g transform="matrix(0.048851, 0, 0, -0.048851, -0.027479, 585.12275)" fill="#000000" stroke="none">
    <path d="M4780 10230 c-576 -42 -1118 -180 -1509 -386 -360 -190 -581 -410 -675 -672 l-31 -87 -3 -572 -3 -573 1281 0 1280 0 0 -130 0 -130 -1982 -2 -1983 -3 -80 -28 c-215 -76 -398 -233 -565 -485 -412 -620 -598 -1680 -469 -2672 128 -994 522 -1717 1034 -1897 l80 -28 571 -3 571 -3 6 98 c4 54 7 155 7 224 0 261 30 647 71 899 129 811 440 1211 1065 1369 304 77 688 100 1684 101 615 0 933 10 1176 35 556 59 855 199 1050 491 188 283 281 703 314 1419 14 298 13 1805 -1 1881 -33 181 -151 367 -329 521 -376 325 -1010 550 -1760 623 -146 15 -649 20 -800 10z m-927 -820 c171 -53 305 -210 325 -384 36 -292 -177 -536 -468 -536 -410 0 -623 492 -343 791 125 133 311 183 486 129z" style="fill: rgb(67, 120, 187);"/>
    <path d="M7937 7589 c-4 -51 -7 -152 -7 -226 0 -271 -33 -668 -76 -923 -135 -801 -467 -1196 -1135 -1349 -329 -76 -762 -100 -1785 -101 -598 0 -897 -10 -1114 -35 -678 -81 -967 -317 -1125 -918 -55 -208 -88 -433 -116 -782 -17 -204 -24 -1995 -9 -2082 60 -346 394 -663 928 -882 324 -133 695 -220 1132 -267 202 -22 737 -26 930 -6 675 68 1212 233 1602 492 252 167 409 350 485 565 l28 80 3 573 3 572 -1281 0 -1280 0 0 130 0 130 1983 2 1982 3 87 31 c262 94 482 315 672 675 187 356 314 817 373 1359 25 232 25 748 0 980 -80 738 -281 1310 -596 1699 -133 165 -280 274 -449 335 l-87 31 -571 3 -571 3 -6 -92z m-1268 -5858 c194 -60 331 -246 331 -451 0 -425 -520 -631 -816 -323 -237 248 -127 668 204 774 78 24 202 25 281 0z" style="fill: rgb(67, 120, 187);"/>
  </g>
</svg>