<?xml version="1.0" encoding="utf-8"?>
<svg id="svg2" viewBox="0 0 500 670" xmlns="http://www.w3.org/2000/svg" style="shape-rendering: geometricprecision;" xmlns:bx="https://boxy-svg.com">
  <desc>Source: openclipart.org/detail/209545</desc>
  <defs>
    <bx:guide x="548.475" y="590.915" angle="0"/>
  </defs>
  <g transform="matrix(0.624637, 0, 0, 0.624637, -61.892419, 22.994309)" style="shape-rendering: geometricprecision;">
    <g transform="matrix(1, 0, 0, 1, -548.847298, -585.191964)">
      <g transform="matrix(1.60093, 0, 0, 1.60093, 660.740183, 685.259227)">
        <path style="opacity: 0.989; fill: rgb(227, 242, 253);" d="M 1.5,-0.5 C 34.5,-0.5 67.5,-0.5 100.5,-0.5C 147.651,46.3161 194.984,93.3161 242.5,140.5C 289.854,93.8123 336.854,46.8123 383.5,-0.5C 408.833,-0.5 434.167,-0.5 459.5,-0.5C 466.416,10.9318 473.583,22.2652 481,33.5C 482.312,35.9552 483.478,38.4552 484.5,41C 483.874,41.7504 483.374,42.5838 483,43.5C 403.661,121.503 324.161,199.67 244.5,278C 242.833,278.667 241.167,278.667 239.5,278C 158.609,199.941 78.6086,121.108 -0.5,41.5C -0.5,28.1667 -0.5,14.8333 -0.5,1.5C 0.5,1.16667 1.16667,0.5 1.5,-0.5 Z"/>
      </g>
      <g transform="matrix(1.60093, 0, 0, 1.60093, 660.740183, 685.259227)">
        <path style="opacity: 0.987; fill: rgb(227, 242, 253);" d="M 246.5,499.5 C 243.5,499.5 240.5,499.5 237.5,499.5C 159.981,423.814 82.6481,347.981 5.5,272C 2.84741,269.866 0.847413,267.366 -0.5,264.5C -0.5,250.833 -0.5,237.167 -0.5,223.5C 0.28913,223.217 0.955796,222.717 1.5,222C 34.1667,221.333 66.8333,221.333 99.5,222C 147.148,269.151 194.815,315.984 242.5,362.5C 289.95,315.214 337.283,268.381 384.5,222C 408.833,221.333 433.167,221.333 457.5,222C 467.117,234.061 475.617,246.894 483,260.5C 483.667,262.5 483.667,264.5 483,266.5C 404.101,343.898 325.267,421.565 246.5,499.5 Z"/>
      </g>
    </g>
  </g>
</svg>