<?xml version="1.0" encoding="utf-8"?>
<svg id="svg2" viewBox="0 0 500 670" xmlns="http://www.w3.org/2000/svg" style="shape-rendering: geometricprecision;" xmlns:bx="https://boxy-svg.com">
  <desc>Source: openclipart.org/detail/209545</desc>
  <defs>
    <bx:guide x="548.475" y="590.915" angle="0"/>
  </defs>
  <g transform="matrix(0.624637, 0, 0, 0.624637, -61.892419, 22.994309)" style="shape-rendering: geometricprecision;">
    <g transform="matrix(1.06184, 0, 0, 1.06184, -31.32598, -30.465773)">
      <path style="opacity: 0.997; fill: rgb(227, 242, 253);" d="M 469.5,119.5 C 487.529,117.269 503.863,121.436 518.5,132C 542.361,155.169 569.361,159.502 599.5,145C 632.866,136.605 658.366,147.105 676,176.5C 683.595,199.095 698.761,213.928 721.5,221C 740.793,220.571 758.46,225.571 774.5,236C 795.127,254.935 803.294,278.435 799,306.5C 801.705,320.745 808.205,332.912 818.5,343C 829.26,349.796 839.76,356.963 850,364.5C 867.066,384.16 871.733,406.494 864,431.5C 844.604,462.098 846.271,491.431 869,519.5C 882.797,549.508 877.964,576.008 854.5,599C 833.682,611.114 822.349,629.281 820.5,653.5C 821.665,662.654 822.665,671.821 823.5,681C 822.157,711.996 806.824,732.329 777.5,742C 742.607,746.559 721.44,766.059 714,800.5C 702.337,824.68 683.004,837.68 656,839.5C 646.007,838.544 636.174,836.71 626.5,834C 599.738,831.715 578.405,841.381 562.5,863C 536.447,883.286 509.447,884.619 481.5,867C 465.401,849.636 445.734,842.636 422.5,846C 411.289,849.737 399.956,853.07 388.5,856C 364.824,858.335 345.324,850.502 330,832.5C 324.143,822.786 318.809,812.786 314,802.5C 305.284,790.456 293.784,782.289 279.5,778C 268.481,776.435 257.481,774.768 246.5,773C 217.792,763.115 202.459,742.949 200.5,712.5C 203.432,679.282 189.765,655.782 159.5,642C 134.951,623.019 126.784,598.519 135,568.5C 138.077,561.348 141.41,554.348 145,547.5C 153.056,523.059 148.723,501.059 132,481.5C 116.69,451.867 120.523,425.033 143.5,401C 174.73,380.831 185.396,352.665 175.5,316.5C 177.424,287.121 192.09,267.288 219.5,257C 256.266,252.902 278.432,232.735 286,196.5C 300.473,169.009 323.306,156.843 354.5,160C 363.607,162.404 372.774,164.238 382,165.5C 395.705,164.932 408.205,160.765 419.5,153C 426.272,147.14 432.605,140.806 438.5,134C 447.688,126.557 458.021,121.723 469.5,119.5 Z"/>
    </g>
    <g transform="matrix(1.06184, 0, 0, 1.06184, -31.32598, -30.465773)">
      <path style="opacity: 1; fill: rgb(15, 23, 42);" d="M 666.5,342.5 C 691.686,340.856 703.853,352.522 703,377.5C 701.721,382.725 699.388,387.391 696,391.5C 608.859,479.307 521.026,566.474 432.5,653C 420.646,658.559 409.646,657.226 399.5,649C 366.305,616.139 333.472,582.972 301,549.5C 291.252,527.833 297.418,512.666 319.5,504C 328.228,503.028 336.228,505.028 343.5,510C 367.195,534.028 391.195,557.695 415.5,581C 417.833,581.667 420.167,581.667 422.5,581C 500.806,503.694 578.806,426.027 656.5,348C 659.767,345.871 663.101,344.038 666.5,342.5 Z"/>
    </g>
  </g>
</svg>