<?xml version="1.0" standalone="no"?>
<!DOCTYPE svg PUBLIC "-//W3C//DTD SVG 20010904//EN"
 "http://www.w3.org/TR/2001/REC-SVG-20010904/DTD/svg10.dtd">
<svg version="1.0" xmlns="http://www.w3.org/2000/svg"
 width="512.000000pt" height="512.000000pt" viewBox="0 0 512.000000 512.000000"
 preserveAspectRatio="xMidYMid meet">

<g transform="translate(0.000000,512.000000) scale(0.100000,-0.100000)"
fill="#000000" stroke="none">
<path d="M400 5098 c-33 -17 -52 -36 -70 -70 l-25 -47 194 -2168 c207 -2327
194 -2207 257 -2290 13 -18 44 -44 67 -57 39 -23 1434 -417 1597 -452 83 -18
197 -17 280 0 167 36 1558 429 1597 451 49 29 98 88 117 142 9 24 88 876 207
2207 l194 2167 -25 47 c-18 34 -37 53 -70 70 l-44 22 -2116 0 -2116 0 -44 -22z
m3548 -988 c17 -16 22 -32 22 -68 0 -72 -47 -453 -57 -462 -4 -4 -264 -112
-578 -240 -313 -128 -580 -239 -592 -246 -25 -16 -28 -30 -13 -54 8 -13 79
-16 509 -20 485 -5 500 -6 527 -26 45 -33 67 -70 71 -121 4 -43 -126 -1317
-143 -1403 -5 -20 -23 -50 -48 -74 -39 -39 -67 -50 -541 -216 -432 -151 -508
-175 -555 -174 -43 2 -161 39 -545 173 -269 94 -501 179 -515 189 -55 40 -67
86 -99 397 -39 368 -39 376 -2 417 l29 33 166 3 c187 4 223 -5 249 -61 9 -18
25 -117 36 -221 12 -104 22 -190 23 -191 2 -2 152 -54 335 -118 l332 -115 333
116 c183 64 334 116 336 117 3 2 82 731 82 758 0 16 -52 17 -955 17 -1052 0
-1007 -3 -1038 61 -9 19 -24 109 -35 208 -21 182 -18 223 16 254 10 9 297 131
637 272 341 140 624 260 629 265 7 7 7 16 0 28 -10 16 -61 17 -676 22 -530 4
-668 8 -681 18 -20 17 -23 34 -42 205 -21 194 -20 232 7 257 22 20 27 20 1388
20 1361 0 1366 0 1388 -20z"/>
</g>
</svg>
