<?xml version="1.0" standalone="no"?>
<!DOCTYPE svg PUBLIC "-//W3C//DTD SVG 20010904//EN"
 "http://www.w3.org/TR/2001/REC-SVG-20010904/DTD/svg10.dtd">
<svg version="1.0" xmlns="http://www.w3.org/2000/svg"
 width="640.000000pt" height="640.000000pt" viewBox="0 0 640.000000 640.000000"
 preserveAspectRatio="xMidYMid meet">

<g transform="translate(0.000000,640.000000) scale(0.100000,-0.100000)"
fill="#000000" stroke="none">
<path d="M100 3205 l0 -3115 3125 0 3125 0 0 3115 0 3115 -3125 0 -3125 0 0
-3115z m4963 259 c176 -25 293 -78 413 -187 75 -69 194 -214 194 -237 0 -9
-21 -32 -47 -52 -70 -52 -302 -206 -346 -229 l-38 -20 -92 95 c-87 90 -96 95
-165 116 -137 42 -257 17 -334 -68 -46 -51 -61 -99 -56 -177 8 -134 86 -202
383 -336 357 -161 527 -262 655 -389 154 -155 219 -322 220 -568 0 -143 -19
-247 -61 -340 -167 -368 -607 -541 -1164 -457 -282 43 -571 223 -719 450 -65
98 -69 109 -48 128 20 17 252 154 366 217 l79 43 31 -39 c17 -21 66 -76 109
-121 120 -123 219 -170 387 -180 261 -15 430 97 430 287 0 135 -59 196 -305
315 -588 285 -586 284 -720 420 -97 98 -144 168 -181 270 -53 146 -58 415 -9
557 101 294 369 490 706 516 110 8 178 6 312 -14z m-1393 -269 l0 -255 -405 0
-405 0 0 -1160 0 -1160 -290 0 -290 0 -2 1158 -3 1157 -409 3 -409 2 6 238 c3
130 8 245 12 255 7 16 69 17 1101 17 l1094 0 0 -255z"/>
</g>
</svg>
