<?xml version="1.0" encoding="utf-8"?>
<svg xmlns="http://www.w3.org/2000/svg" viewBox="0 0 500 500">
  <g transform="matrix(0.039085, 0, 0, -0.039085, -0.20593, 500.187294)" fill="#000000" stroke="none">
    <path d="M6115 12794 c-546 -32 -990 -104 -1450 -235 -882 -250 -1666 -666 -2386 -1265 -197 -163 -619 -585 -780 -779 -858 -1033 -1347 -2215 -1475 -3570 -25 -254 -25 -850 0 -1100 130 -1352 619 -2529 1482 -3566 163 -197 585 -619 779 -780 1032 -858 2218 -1348 3570 -1475 224 -21 820 -25 1035 -6 1030 90 1952 385 2805 897 806 485 1513 1160 2032 1940 1098 1650 1370 3732 731 5603 -258 759 -638 1431 -1164 2063 -163 197 -585 619 -779 780 -1029 855 -2230 1352 -3560 1474 -159 14 -707 27 -840 19z m3549 -2418 c54 -14 135 -43 180 -65 80 -39 196 -115 196 -129 0 -4 -196 -203 -435 -442 -378 -378 -435 -439 -435 -465 0 -25 46 -76 341 -370 l340 -341 -68 -27 c-138 -54 -186 -62 -363 -62 -131 0 -180 4 -235 19 -288 78 -507 258 -636 521 -72 148 -94 247 -93 425 0 160 13 228 65 359 84 212 260 402 464 503 86 43 171 73 250 87 33 6 71 13 85 15 62 11 249 -4 344 -28z m533 -353 c134 -180 193 -360 193 -589 0 -186 -41 -336 -135 -497 -50 -85 -149 -196 -235 -264 l-55 -43 -322 322 -323 323 407 407 c225 225 410 408 413 408 4 0 29 -30 57 -67z m-1934 -1118 c72 -19 124 -45 207 -104 l65 -46 -55 -6 c-62 -8 -126 -29 -179 -60 -20 -12 -582 -567 -1249 -1233 l-1212 -1211 -253 253 -252 253 300 297 c1062 1050 1785 1641 2215 1812 147 58 299 75 413 45z m401 -295 c76 -29 139 -88 177 -166 28 -57 33 -76 33 -142 -1 -82 -21 -145 -66 -202 -13 -16 -592 -528 -1288 -1139 l-1265 -1110 -158 157 -157 157 1212 1211 c1132 1131 1217 1213 1268 1232 74 28 172 28 244 2z m232 -652 c-12 -91 -76 -268 -148 -409 -161 -320 -446 -697 -881 -1167 -180 -195 -1064 -1072 -1081 -1072 -6 0 -110 99 -231 220 l-220 220 25 24 c14 13 581 511 1260 1106 679 595 1243 1093 1253 1106 10 13 21 24 24 24 3 0 2 -23 -1 -52z m-3189 -1764 c-9 -9 -1044 -225 -1065 -222 -20 2 -28 9 -30 27 -3 20 50 78 315 343 l318 318 232 -232 c128 -128 231 -233 230 -234z m272 -268 c121 -121 131 -134 110 -139 -138 -34 -549 -117 -569 -115 -56 7 -37 36 141 214 96 96 176 174 179 174 3 0 65 -60 139 -134z m476 -477 l230 -230 -50 -46 c-179 -162 -561 -450 -900 -679 -480 -323 -885 -559 -1650 -960 -133 -70 -152 -83 -169 -117 l-18 -39 61 -259 c65 -279 66 -302 16 -315 -14 -3 -35 -4 -47 0 -13 3 -171 154 -353 336 l-330 330 1003 1003 1004 1004 336 72 c186 40 393 85 462 100 69 16 136 29 150 30 20 1 71 -45 255 -230z m-2660 -2717 c-2 -2 -140 6 -307 18 -167 11 -421 29 -564 39 -144 10 -266 21 -273 25 -34 21 -6 56 246 308 l258 258 322 -322 c177 -177 320 -324 318 -326z" style="fill: rgb(255, 255, 255);"/>
    <path d="M10055 9569 c-23 -19 -26 -27 -21 -63 20 -161 21 -151 -18 -230 -39 -80 -39 -113 3 -135 55 -30 101 4 150 109 46 101 28 283 -32 325 -29 20 -49 19 -82 -6z" style="fill: rgb(255, 255, 255);"/>
  </g>
</svg>