<?xml version="1.0" encoding="utf-8"?>
<svg xmlns="http://www.w3.org/2000/svg" viewBox="0 0 500 500">
  <g transform="matrix(0.039081, 0, 0, -0.039081, -0.118397, 500.089058)" fill="#000000" stroke="none">
    <path d="M6065 10239 c-482 -36 -884 -140 -1260 -325 -671 -329 -1154 -909 -1460 -1749 -43 -120 -148 -466 -142 -472 2 -1 39 44 82 100 105 134 385 414 505 504 485 365 969 482 1540 372 288 -55 536 -177 810 -397 52 -42 271 -250 485 -462 390 -385 524 -512 665 -626 664 -538 1389 -784 2310 -784 1642 0 2691 794 3150 2384 27 93 48 171 47 172 -1 2 -41 -45 -87 -104 -108 -136 -298 -332 -420 -434 -427 -359 -918 -521 -1419 -468 -393 42 -678 162 -1008 427 -54 43 -285 262 -513 488 -435 430 -561 544 -776 706 -619 465 -1327 684 -2199 678 -110 -1 -249 -6 -310 -10z" style="fill: rgb(255, 255, 255);"/>
    <path d="M2867 6390 c-1456 -107 -2393 -897 -2818 -2375 -26 -93 -47 -170 -46 -171 1 -2 41 45 87 104 372 468 826 777 1283 872 409 85 871 24 1217 -161 234 -126 374 -243 835 -699 508 -502 633 -614 892 -798 296 -210 661 -382 1011 -477 764 -207 1713 -175 2397 82 900 337 1504 1055 1825 2167 27 93 48 171 47 172 -1 2 -41 -45 -87 -104 -108 -136 -298 -332 -420 -434 -428 -360 -918 -521 -1418 -468 -397 43 -684 164 -1012 428 -52 43 -282 261 -510 487 -228 226 -467 455 -530 509 -592 510 -1177 766 -1940 852 -160 18 -646 26 -813 14z" style="fill: rgb(255, 255, 255);"/>
  </g>
</svg>