<?xml version="1.0" encoding="utf-8"?>
<svg xmlns="http://www.w3.org/2000/svg" viewBox="0 0 500 500">
  <g transform="matrix(0.016579, 0, 0, -0.016579, -1.835016, 500.491646)" fill="#000000" stroke="none">
    <path d="M14585 30179 c-3063 -123 -5993 -1170 -8450 -3019 -858 -646 -1690 -1427 -2400 -2255 -1990 -2317 -3236 -5213 -3545 -8233 -59 -579 -75 -907 -75 -1562 0 -574 8 -784 46 -1245 311 -3804 2065 -7344 4919 -9928 3135 -2839 7259 -4223 11465 -3847 3908 350 7522 2222 10104 5234 2073 2419 3330 5441 3575 8601 35 442 41 613 41 1190 0 578 -6 739 -41 1185 -237 3044 -1405 5949 -3349 8331 -330 405 -631 735 -1030 1134 -543 544 -1066 997 -1655 1436 -2353 1753 -5104 2767 -8025 2959 -448 29 -1127 37 -1580 19z m1138 -6379 c2141 -128 4089 -1002 5602 -2515 1397 -1397 2253 -3172 2470 -5120 41 -374 50 -547 50 -985 -1 -420 -9 -586 -46 -930 -313 -2906 -2098 -5469 -4724 -6782 -2439 -1220 -5315 -1210 -7760 27 l-220 112 -2280 -598 c-1254 -329 -2282 -596 -2284 -593 -2 2 271 1008 606 2234 l611 2231 -65 116 c-623 1115 -993 2393 -1073 3713 -22 360 -11 904 26 1290 163 1729 848 3369 1963 4704 259 310 638 699 928 953 1459 1278 3260 2025 5168 2142 203 12 827 13 1028 1z" style="fill: rgb(255, 255, 255);"/>
    <path d="M14850 22343 c-580 -39 -1010 -108 -1506 -243 -729 -199 -1458 -532 -2091 -956 -899 -603 -1642 -1389 -2204 -2330 -121 -203 -350 -660 -438 -874 -505 -1222 -665 -2500 -475 -3799 146 -1004 503 -1948 1077 -2854 59 -92 107 -176 107 -185 0 -9 -160 -603 -356 -1320 -197 -716 -354 -1305 -351 -1308 3 -3 607 152 1342 345 735 193 1343 351 1351 351 9 0 106 -54 217 -119 1026 -605 2007 -915 3202 -1013 326 -27 920 -14 1295 28 1312 146 2552 651 3605 1469 430 334 916 820 1250 1250 755 972 1245 2106 1429 3305 61 401 80 658 80 1100 0 442 -20 714 -80 1110 -257 1680 -1115 3210 -2431 4338 -1185 1015 -2644 1604 -4218 1702 -143 9 -690 11 -805 3z m-2340 -2908 c265 -40 471 -170 565 -356 14 -26 142 -366 285 -755 144 -389 295 -796 337 -903 69 -178 77 -204 81 -283 5 -103 -8 -152 -71 -264 -62 -111 -134 -203 -324 -411 -213 -232 -284 -324 -337 -433 -36 -75 -41 -93 -41 -155 0 -85 19 -128 175 -390 516 -866 1135 -1527 1900 -2028 177 -115 642 -385 765 -443 260 -123 452 -137 573 -42 73 58 535 573 691 772 181 230 233 270 351 270 154 0 325 -82 1550 -742 490 -264 510 -275 565 -323 66 -58 70 -74 69 -259 -2 -383 -148 -873 -328 -1096 -196 -244 -595 -517 -969 -663 -389 -152 -820 -191 -1277 -115 -291 49 -674 171 -1120 357 -581 242 -1056 465 -1315 617 -811 477 -1609 1200 -2316 2100 -237 301 -412 553 -807 1165 -171 265 -253 407 -367 640 -248 502 -381 957 -415 1409 -23 306 24 677 125 981 128 388 304 665 634 996 l186 187 115 56 c227 110 477 149 720 111z" style="fill: rgb(255, 255, 255);"/>
  </g>
</svg>