<?xml version="1.0" encoding="utf-8"?>
<svg id="svg2" viewBox="0 0 500 670" xmlns="http://www.w3.org/2000/svg" style="shape-rendering: geometricprecision;">
  <desc>Source: openclipart.org/detail/209545</desc>
  <g transform="matrix(1.654901, 0, 0, 1.654901, -733.227733, -275.000309)" style="shape-rendering: geometricprecision;">
    <g transform="matrix(0.377447, 0, 0, 0.377447, 613.61152, 223.420749)" style="shape-rendering: geometricprecision;">
      <g transform="matrix(1.397607, 0, 0, 1.397607, -749.461925, -313.462804)" style="">
        <g transform="matrix(1.600929, 0, 0, 1.600929, 99.919694, 100.09826)">
          <path style="opacity: 0.985; fill: rgb(227, 242, 253);" d="M 297.5,49.5 C 327.814,47.0758 351.314,58.4091 368,83.5C 382.606,112.363 380.273,139.697 361,165.5C 337.479,189.839 309.979,195.672 278.5,183C 274.134,156.084 260.801,134.918 238.5,119.5C 238.578,92.5211 250.245,72.0211 273.5,58C 281.303,54.2347 289.303,51.4014 297.5,49.5 Z"/>
        </g>
        <g transform="matrix(1.600929, 0, 0, 1.600929, 99.919694, 100.09826)">
          <path style="opacity: 0.986; fill: rgb(227, 242, 253);" d="M 181.5,121.5 C 215.195,118.758 240.028,132.092 256,161.5C 270.398,201.98 259.232,233.146 222.5,255C 190.12,267.695 161.954,261.528 138,236.5C 118.156,209.051 116.822,180.718 134,151.5C 145.993,135.262 161.827,125.262 181.5,121.5 Z"/>
        </g>
        <g transform="matrix(1.600929, 0, 0, 1.600929, 99.919694, 100.09826)">
          <path style="opacity: 0.985; fill: rgb(227, 242, 253);" d="M 277.5,193.5 C 300.169,193.333 322.836,193.5 345.5,194C 393.501,202.001 420.334,230.167 426,278.5C 426.833,304.173 426.666,329.84 425.5,355.5C 401.414,366.689 376.081,373.523 349.5,376C 341.847,376.777 334.181,377.277 326.5,377.5C 332.098,317.323 307.098,275.989 251.5,253.5C 267.815,236.865 276.481,216.865 277.5,193.5 Z"/>
        </g>
        <g transform="matrix(1.600929, 0, 0, 1.600929, 99.919694, 100.09826)">
          <path style="opacity: 0.991; fill: rgb(227, 242, 253);" d="M 151.5,265.5 C 180.866,265.058 210.199,265.558 239.5,267C 277.526,276.36 300.693,300.193 309,338.5C 310.767,368.145 310.934,397.811 309.5,427.5C 282.579,440.053 254.246,447.22 224.5,449C 172.571,452.176 121.904,445.676 72.5,429.5C 72.3334,401.165 72.5,372.831 73,344.5C 77.8468,311.327 95.3468,287.494 125.5,273C 134.024,269.54 142.691,267.04 151.5,265.5 Z"/>
        </g>
      </g>
    </g>
  </g>
</svg>