<?xml version="1.0" encoding="utf-8"?>
<svg id="svg2" viewBox="0 0 500 670" xmlns="http://www.w3.org/2000/svg" style="shape-rendering: geometricprecision;">
  <desc>Source: openclipart.org/detail/209545</desc>
  <g transform="matrix(1.654901, 0, 0, 1.654901, -733.227733, -275.000309)" style="">
    <g>
      <g transform="matrix(1, 0, 0, 1, 345.20197, 119.136446)">
        <path style="opacity: 0.973; fill: rgb(15, 23, 42);" d="M 242.5,50.5 C 249.221,49.7513 255.554,50.9179 261.5,54C 268.5,59.6667 275.5,65.3333 282.5,71C 292.002,70.2367 301.502,69.07 311,67.5C 321.077,67.2538 328.411,71.5871 333,80.5C 335.803,88.5775 338.803,96.5775 342,104.5C 343.214,106.049 344.714,107.215 346.5,108C 354.733,110.41 362.733,113.41 370.5,117C 377.391,121.61 381.058,128.11 381.5,136.5C 380.073,145.376 378.406,154.209 376.5,163C 377,164.5 377.5,166 378,167.5C 383,173.167 388,178.833 393,184.5C 400.482,195.419 400.149,206.085 392,216.5C 387.667,221.167 383.333,225.833 379,230.5C 377.97,232.588 377.137,234.755 376.5,237C 378.552,245.596 380.219,254.262 381.5,263C 381.327,271.014 377.993,277.347 371.5,282C 362.393,286.258 353.059,289.924 343.5,293C 341.99,294.351 340.99,296.018 340.5,298C 359.529,344.557 378.695,391.057 398,437.5C 398.361,446.249 394.195,449.749 385.5,448C 365.062,437.698 344.562,427.531 324,417.5C 308.926,426.955 294.093,436.788 279.5,447C 273.127,450.112 268.293,448.612 265,442.5C 260.126,427.378 254.96,412.378 249.5,397.5C 243.394,412.714 237.561,428.048 232,443.5C 229.103,448.155 224.937,449.655 219.5,448C 204.24,437.454 188.74,427.288 173,417.5C 152.438,427.531 131.938,437.698 111.5,448C 101.833,449.33 97.9995,445.164 100,435.5C 118.971,389.724 137.805,343.89 156.5,298C 156.01,296.018 155.01,294.351 153.5,293C 146.32,289.94 138.986,287.273 131.5,285C 120.969,280.938 115.969,273.272 116.5,262C 117.763,252.803 118.929,243.636 120,234.5C 115.454,227.278 110.121,220.612 104,214.5C 98.6867,205.747 98.1867,196.747 102.5,187.5C 108.143,180.023 113.976,172.689 120,165.5C 119.984,158.398 118.984,151.398 117,144.5C 114.147,133.079 117.313,123.912 126.5,117C 136.028,113.159 145.528,109.326 155,105.5C 158.471,96.0876 162.137,86.7543 166,77.5C 170.863,70.7353 177.529,67.402 186,67.5C 195.494,69.0686 204.994,70.2353 214.5,71C 220.792,66.3767 226.792,61.3767 232.5,56C 235.767,53.8703 239.1,52.037 242.5,50.5 Z M 247.5,67.5 C 249.308,67.4914 250.975,67.9914 252.5,69C 258.167,74 263.833,79 269.5,84C 277.313,88.2638 285.646,89.5971 294.5,88C 300.135,86.6745 305.802,85.5078 311.5,84.5C 312.938,84.7189 314.271,85.2189 315.5,86C 319.278,96.0024 323.445,105.836 328,115.5C 329.833,117.333 331.667,119.167 333.5,121C 343.426,125.097 353.259,129.264 363,133.5C 363.667,136.5 363.667,139.5 363,142.5C 359.567,152.354 358.9,162.354 361,172.5C 365.855,181.027 371.855,188.693 379,195.5C 381.149,199.087 380.816,202.42 378,205.5C 371.186,211.977 365.519,219.31 361,227.5C 360.082,230.598 359.582,233.765 359.5,237C 361.247,246.468 362.414,255.968 363,265.5C 361.786,267.049 360.286,268.215 358.5,269C 348.984,271.503 339.984,275.169 331.5,280C 329.641,281.558 328.141,283.391 327,285.5C 323.41,293.267 320.41,301.267 318,309.5C 317.215,311.286 316.049,312.786 314.5,314C 311.5,314.667 308.5,314.667 305.5,314C 295.942,310.964 286.275,310.297 276.5,312C 268.31,316.519 260.977,322.186 254.5,329C 250.5,332.333 246.5,332.333 242.5,329C 236.023,322.186 228.69,316.519 220.5,312C 210.708,310.127 201.041,310.794 191.5,314C 188.5,314.667 185.5,314.667 182.5,314C 178.004,303.851 173.504,293.684 169,283.5C 164.936,279.214 160.103,276.048 154.5,274C 149.106,272.535 143.772,270.869 138.5,269C 136.714,268.215 135.214,267.049 134,265.5C 134.211,258.432 135.211,251.432 137,244.5C 138.846,235.391 137.179,227.058 132,219.5C 128.368,214.866 124.368,210.533 120,206.5C 118.304,204.44 117.137,202.107 116.5,199.5C 121.014,191.808 126.514,184.808 133,178.5C 137.236,171.063 138.57,163.063 137,154.5C 135.675,148.866 134.508,143.199 133.5,137.5C 133.434,134.465 134.767,132.298 137.5,131C 147.801,128.349 157.467,124.349 166.5,119C 168.333,116.5 170.167,114 172,111.5C 174.867,103.897 177.534,96.2308 180,88.5C 181.135,86.1975 182.968,84.8642 185.5,84.5C 196.64,87.6962 207.974,88.8629 219.5,88C 223.4,86.4349 227.066,84.4349 230.5,82C 235.495,76.2 241.161,71.3667 247.5,67.5 Z"/>
      </g>
    </g>
    <g transform="matrix(1, 0, 0, 1, 345.20197, 119.136446)">
      <path style="opacity: 0.99; fill: rgb(227, 242, 253);" d="M 246.5,99.5 C 290.917,100.791 322.417,121.458 341,161.5C 357.201,208.54 346.367,248.04 308.5,280C 278.748,300.488 246.748,304.821 212.5,293C 172.228,274.998 150.894,243.831 148.5,199.5C 150.664,158.198 169.998,128.031 206.5,109C 219.415,103.455 232.749,100.289 246.5,99.5 Z"/>
    </g>
  </g>
</svg>