<?xml version="1.0" encoding="utf-8"?>
<svg viewBox="0 0 500 500" xmlns="http://www.w3.org/2000/svg">
  <defs/>
  <g transform="matrix(0.1, 0, 0, -0.1, 74.76899, 500.211121)" fill="#000000" stroke="none">
    <path d="M2262 4969 c-350 -25 -799 -184 -1106 -390 -507 -340 -838 -787&#10;-1019 -1374 -65 -210 -92 -413 -91 -690 0 -333 27 -501 126 -803 149 -451 424&#10;-846 798 -1145 336 -269 749 -449 1175 -511 224 -32 359 -38 535 -22 375 35&#10;609 98 915 245 645 310 1139 919 1309 1615 68 275 92 621 62 866 -47 368 -125&#10;627 -283 932 -129 251 -380 549 -628 747 -261 208 -526 345 -860 444 -295 87&#10;-567 112 -933 86z m1072 -860 c386 -70 672 -325 778 -694 l23 -80 0 -835 c0&#10;-944 3 -898 -80 -1077 -134 -287 -387 -484 -695 -539 -113 -21 -1595 -20&#10;-1695 0 -127 27 -159 37 -235 74 -205 102 -352 245 -447 437 -99 197 -103 238&#10;-103 1103 0 762 4 841 52 977 118 337 377 556 748 633 67 14 1579 15 1654 1z" style="fill: rgb(119, 144, 189);"/>
    <path d="M1700 3785 c-164 -38 -300 -130 -393 -264 -39 -57 -82 -163 -90 -221&#10;-11 -80 -18 -1188 -9 -1425 9 -218 11 -234 37 -300 63 -158 211 -310 345 -353&#10;129 -43 118 -42 916 -42 773 0 791 1 909 37 141 44 320 219 365 356 39 120 40&#10;150 40 924 0 836 1 820 -67 963 -62 129 -213 260 -347 302 -120 37 -144 38&#10;-906 37 -561 -1 -759 -5 -800 -14z m1758 -240 c78 -33 122 -101 122 -190 0&#10;-231 -318 -284 -395 -66 -19 55 -19 76 0 133 37 108 167 167 273 123z m-842&#10;-220 c222 -33 375 -112 521 -269 99 -107 151 -201 204 -376 9 -30 14 -96 14&#10;-195 0 -154 -3 -173 -51 -305 -84 -230 -290 -422 -537 -501 -202 -65 -443 -47&#10;-627 45 -256 129 -420 357 -471 652 -16 95 1 286 31 368 84 220 186 349 364&#10;460 49 31 94 56 100 56 6 0 22 6 36 13 43 22 102 38 190 51 115 18 113 18 226&#10;1z" style="fill: rgb(119, 144, 189);"/>
    <path d="M2405 3008 c-188 -35 -371 -214 -411 -403 -58 -267 86 -527 346 -623&#10;88 -33 257 -35 339 -3 171 65 294 197 347 369 8 26 14 89 14 143 0 97 -14 160&#10;-55 240 -105 206 -347 321 -580 277z" style="fill: rgb(119, 144, 189);"/>
  </g>
</svg>