<?xml version="1.0" encoding="utf-8"?>
<svg id="svg2" viewBox="0 0 500 670" xmlns="http://www.w3.org/2000/svg" style="shape-rendering: geometricprecision;" xmlns:bx="https://boxy-svg.com">
  <desc>Source: openclipart.org/detail/209545</desc>
  <defs>
    <bx:guide x="548.475" y="590.915" angle="0"/>
  </defs>
  <g transform="matrix(0.624637, 0, 0, 0.624637, -61.892419, 22.994309)" style="shape-rendering: geometricprecision;">
    <g transform="matrix(1, 0, 0, 1, -548.847237, -585.191964)">
      <g transform="matrix(1.60093, 0, 0, 1.60093, 660.721567, 685.259227)">
        <path style="opacity: 0.987; fill: rgb(15, 23, 42);" d="M 236.5,-0.5 C 239.5,-0.5 242.5,-0.5 245.5,-0.5C 324.242,77.7434 403.409,155.41 483,232.5C 483.545,243.608 484.045,254.442 484.5,265C 484.333,268.167 484.167,271.333 484,274.5C 483.167,275.333 482.333,276.167 481.5,277C 448.833,277.667 416.167,277.667 383.5,277C 335.932,229.931 288.266,183.098 240.5,136.5C 193.374,183.126 146.374,229.959 99.5,277C 74.8333,277.667 50.1667,277.667 25.5,277C 24,275.5 22.5,274 21,272.5C 13.5751,261.26 6.40842,249.927 -0.5,238.5C -0.5,236.833 -0.5,235.167 -0.5,233.5C 78.3119,155.691 157.312,77.6905 236.5,-0.5 Z"/>
      </g>
      <g transform="matrix(1.60093, 0, 0, 1.60093, 660.721567, 685.259227)">
        <path style="opacity: 0.988; fill: rgb(15, 23, 42);" d="M 482.5,499.5 C 449.167,499.5 415.833,499.5 382.5,499.5C 335.27,452.621 288.103,405.621 241,358.5C 194.154,405.512 146.988,452.512 99.5,499.5C 74.5,499.5 49.5,499.5 24.5,499.5C 15.6562,487.139 7.32286,474.472 -0.5,461.5C -0.5,459.5 -0.5,457.5 -0.5,455.5C 79.0738,377.092 158.74,298.925 238.5,221C 239.333,220.833 240.167,220.667 241,220.5C 244.063,221.881 246.896,223.714 249.5,226C 327.8,302.635 405.633,379.468 483,456.5C 483.399,466.838 483.899,477.172 484.5,487.5C 484.66,491.69 483.993,495.69 482.5,499.5 Z"/>
      </g>
    </g>
  </g>
</svg>